HIERARCHY
ROOT Hips
{
	OFFSET	0.00	0.00	0.00
	CHANNELS 6 Xposition Yposition Zposition Zrotation Xrotation Yrotation
	JOINT LeftUpLeg
	{
		OFFSET	 0.126116	-0.014019	-0.065224
		CHANNELS 3 Zrotation Xrotation Yrotation
		JOINT LeftLeg
		{
			OFFSET	 0.000000	 0.000000	 0.569914
			CHANNELS 3 Zrotation Xrotation Yrotation
			JOINT LeftFoot
			{
				OFFSET	 0.000000	 0.000000	 0.544423
				CHANNELS 3 Zrotation Xrotation Yrotation
				JOINT LeftToeBase
				{
					OFFSET	 0.000000	 0.000000	 0.207117
					CHANNELS 3 Zrotation Xrotation Yrotation
					End Site
					{
						OFFSET	 0.000000	 0.000000	 0.207117
					}
				}
			}
		}
	}
	JOINT RightUpLeg
	{
		OFFSET	-0.124023	-0.008373	-0.065224
		CHANNELS 3 Zrotation Xrotation Yrotation
		JOINT RightLeg
		{
			OFFSET	 0.000000	 0.000000	 0.570047
			CHANNELS 3 Zrotation Xrotation Yrotation
			JOINT RightFoot
			{
				OFFSET	 0.000000	 0.000000	 0.544354
				CHANNELS 3 Zrotation Xrotation Yrotation
				JOINT RightToeBase
				{
					OFFSET	 0.000000	 0.000000	 0.207540
					CHANNELS 3 Zrotation Xrotation Yrotation
					End Site
					{
						OFFSET	 0.000000	 0.000000	 0.207540
					}
				}
			}
		}
	}
	JOINT Spine
	{
		OFFSET	 0.000184	-0.007763	 0.117403
		CHANNELS 3 Zrotation Xrotation Yrotation
		JOINT Spine1
		{
			OFFSET	 0.000000	 0.000000	 0.137269
			CHANNELS 3 Zrotation Xrotation Yrotation
			JOINT Spine2
			{
				OFFSET	 0.000000	 0.000000	 0.156879
				CHANNELS 3 Zrotation Xrotation Yrotation
				JOINT LeftShoulder
				{
					OFFSET	 0.080501	-0.002496	 0.160144
					CHANNELS 3 Zrotation Xrotation Yrotation
					JOINT LeftArm
					{
						OFFSET	 0.000000	 0.000000	 0.164363
						CHANNELS 3 Zrotation Xrotation Yrotation
						JOINT LeftForeArm
						{
							OFFSET	 0.000000	 0.000000	 0.364576
							CHANNELS 3 Zrotation Xrotation Yrotation
							JOINT LeftHand
							{
								OFFSET	 0.000000	 0.000000	 0.360812
								CHANNELS 3 Zrotation Xrotation Yrotation
								JOINT LeftHandIndex1
								{
									OFFSET	 0.000000	 0.000000	 0.086006
									CHANNELS 3 Zrotation Xrotation Yrotation
									JOINT LeftHandIndex2
									{
										OFFSET	 0.000000	 0.000000	 0.047236
										CHANNELS 3 Zrotation Xrotation Yrotation
										JOINT LeftHandIndex3
										{
											OFFSET	-0.004284	-0.000551	 0.038166
											CHANNELS 3 Zrotation Xrotation Yrotation
											End Site
											{
												OFFSET	-0.004284	-0.000551	 0.038166
											}
										}
									}
								}
							}
						}
					}
				}
				JOINT Neck
				{
					OFFSET	 0.000000	 0.000000	 0.176489
					CHANNELS 3 Zrotation Xrotation Yrotation
					JOINT Head
					{
						OFFSET	 0.000000	-0.001747	 0.077940
						CHANNELS 3 Zrotation Xrotation Yrotation
						End Site
						{
							OFFSET	 0.000000	-0.001747	 0.077940
						}
					}
				}
				JOINT RightShoulder
				{
					OFFSET	-0.080363	 0.000306	 0.159706
					CHANNELS 3 Zrotation Xrotation Yrotation
					JOINT RightArm
					{
						OFFSET	 0.000000	 0.000000	 0.164196
						CHANNELS 3 Zrotation Xrotation Yrotation
						JOINT RightForeArm
						{
							OFFSET	 0.000000	 0.000000	 0.365611
							CHANNELS 3 Zrotation Xrotation Yrotation
							JOINT RightHand
							{
								OFFSET	 0.000000	 0.000000	 0.360648
								CHANNELS 3 Zrotation Xrotation Yrotation
								JOINT RightHandIndex1
								{
									OFFSET	 0.000000	 0.000000	 0.069977
									CHANNELS 3 Zrotation Xrotation Yrotation
									JOINT RightHandIndex2
									{
										OFFSET	 0.000000	 0.000000	 0.052305
										CHANNELS 3 Zrotation Xrotation Yrotation
										JOINT RightHandIndex3
										{
											OFFSET	 0.009002	-0.000782	 0.042196
											CHANNELS 3 Zrotation Xrotation Yrotation
											End Site
											{
												OFFSET	 0.009002	-0.000782	 0.042196
											}
										}
									}
								}
							}
						}
					}
				}
			}
		}
	}
}
MOTION
Frames:    11
Frame Time: 0.03333334
 2.452530	-0.078252	-0.595801	 63.651790	-2.902787	-0.845650	 5.446983	 12.411540	-176.964700	-3.145130	-22.025180	 1.013946	 6.418484	 88.062550	-5.581844	-2.330864	 36.776420	-0.192354	 3.583050	-34.785060	-178.724300	 4.927156	-52.652900	 8.343812	-177.510100	 89.521120	-175.948400	 2.377642	 29.858840	 0.032128	-1.842307	 4.562740	 2.303457	 0.978001	-0.450028	 0.917535	 1.434221	-2.832657	-0.406661	-91.776180	 78.527400	-180.000000	 35.608660	 61.287120	-52.737450	-8.966407	-4.851176	-33.694310	 4.026680	-2.106917	-5.366451	-3.812334	 37.924440	-2.927599	-2.450526	 36.184240	 0.754587	-1.378229	 35.397820	-2.634230	 1.210312	 2.228580	-4.857398	 1.553261	-8.705123	 3.024662	 89.782090	 78.203830	-180.000000	-39.060520	 71.085970	 36.965440	-0.305018	-6.944682	 23.042100	-13.241140	-3.239053	 9.570146	 6.437017	 35.671460	-0.771858	 2.830251	 35.756010	-7.813440	-2.350882	 35.473990	 5.254307
 2.494940	-0.098207	-0.597789	 63.977860	-2.420701	-1.079709	 7.212882	 19.660330	-176.725400	-3.570457	-11.634120	 1.459473	 3.380188	 84.185870	-0.091483	-2.312150	 38.704560	-0.241429	 4.640971	-35.483910	-178.122200	 2.121599	-45.657480	 5.919583	 104.363800	 89.879670	-98.292240	 2.373622	 30.614040	 0.048893	-1.908450	 4.239649	 2.342210	 1.020733	-0.537060	 0.895527	 1.443092	-2.886096	-0.406125	-91.776180	 78.527420	-180.000000	 35.543320	 60.673550	-53.434440	-8.940065	-4.953753	-35.385890	 3.911776	-2.096317	-5.368660	-3.812334	 37.924440	-2.927599	-2.450526	 36.184240	 0.754587	-1.378229	 35.397820	-2.634230	 1.210480	 2.143843	-4.942110	 1.605599	-8.776556	 3.422686	 89.782090	 78.203830	-180.000000	-38.312520	 71.782650	 35.868200	 0.010689	-6.861271	 22.438000	-13.420250	-3.247257	 9.564840	 6.437017	 35.671460	-0.771858	 2.830251	 35.756010	-7.813440	-2.350882	 35.473990	 5.254307
 2.541206	-0.122510	-0.599633	 64.440770	-2.010438	-1.278085	 7.387415	 21.749730	-177.007800	-3.478225	-11.626900	 1.516488	 4.013154	 84.430390	-0.474890	-2.282804	 41.286490	-0.310670	 5.265367	-36.058610	-177.538800	 0.046877	-39.894860	 4.118118	 145.790900	 89.591700	-140.421100	 2.365132	 32.055900	 0.081470	-2.047210	 3.948229	 2.203572	 1.048059	-0.680700	 0.833532	 1.518516	-3.008161	-0.430395	-91.776180	 78.527400	-180.000000	 36.128270	 60.522210	-54.479450	-9.055698	-4.966645	-36.541020	 3.747261	-2.116709	-5.365044	-3.812334	 37.924440	-2.927599	-2.450526	 36.184240	 0.754587	-1.378229	 35.397820	-2.634230	 1.226602	 2.164098	-4.979222	 1.670764	-8.977024	 3.916401	 89.782120	 78.203870	 180.000000	-37.087000	 72.549410	 34.420330	 0.270146	-6.756199	 21.442890	-13.821050	-3.261520	 9.554856	 6.437017	 35.671460	-0.771858	 2.830251	 35.756010	-7.813440	-2.350882	 35.473990	 5.254307
 2.589694	-0.148391	-0.601442	 64.948300	-1.938340	-1.323242	 7.655093	 24.039560	-177.693700	-3.074512	-11.613620	 1.615870	 4.809419	 83.871510	-0.766482	-2.237705	 44.545730	-0.404991	 5.018667	-35.936550	-177.413600	-0.080609	-37.795450	 3.669433	 152.507400	 89.363570	-147.267100	 2.360721	 32.739350	 0.097187	-2.240061	 3.820837	 1.957830	 1.052978	-0.781064	 0.686412	 1.642791	-3.075588	-0.482453	-91.776180	 78.527420	-180.000000	 37.134030	 60.922790	-55.329390	-9.120841	-4.992857	-36.685460	 3.768189	-2.115557	-5.365235	-3.812334	 37.924440	-2.927599	-2.450526	 36.184240	 0.754587	-1.378229	 35.397820	-2.634230	 1.251723	 2.076257	-5.026013	 1.745562	-9.013213	 4.423761	 89.782070	 78.203930	-180.000000	-35.907940	 73.153980	 33.108290	 0.326440	-6.647827	 20.364120	-14.315200	-3.278004	 9.542643	 6.437017	 35.671460	-0.771858	 2.830251	 35.756010	-7.813440	-2.350882	 35.473990	 5.254307
 2.643194	-0.178437	-0.603427	 65.484850	-2.057695	-1.315304	 8.080719	 26.533010	-178.868600	-2.269201	-11.590620	 1.774930	 5.627044	 81.953530	-0.700152	-2.192986	 47.208810	-0.489062	 4.850763	-35.172680	-177.583300	 0.825845	-38.513980	 4.261919	 105.793900	 89.748210	-99.962420	 2.371139	 31.054980	 0.058789	-2.435220	 3.703604	 1.849730	 1.071464	-0.820265	 0.477395	 1.841345	-2.954180	-0.564564	-91.776180	 78.527400	 180.000000	 38.627020	 61.695180	-56.004970	-9.140186	-4.930694	-36.003820	 3.771924	-2.110691	-5.366129	-3.812334	 37.924440	-2.927599	-2.450526	 36.184240	 0.754587	-1.378229	 35.397820	-2.634230	 1.355234	 2.211179	-5.091629	 1.868737	-9.108699	 4.861816	 89.782100	 78.203850	-180.000000	-35.093780	 73.592770	 32.223380	 0.203292	-6.519678	 19.280540	-14.814000	-3.296409	 9.528165	 6.437017	 35.671460	-0.771858	 2.830251	 35.756010	-7.813440	-2.350882	 35.473990	 5.254307
 2.696031	-0.209116	-0.605369	 66.053300	-2.181881	-1.243462	 8.602801	 28.838440	 179.640400	-1.459491	-11.569680	 1.908363	 5.896007	 78.639580	-0.094734	-2.138151	 49.946970	-0.583612	 4.576136	-33.761160	-178.065700	 2.235691	-40.549140	 5.340516	 14.609620	 89.236900	-7.978922	 2.379891	 29.410550	 0.022253	-2.693341	 3.471939	 1.779795	 1.052288	-0.859271	 0.248060	 2.083905	-2.729840	-0.696901	-91.776180	 78.527420	-180.000000	 40.200650	 62.729450	-56.098580	-9.049817	-4.834081	-34.622360	 3.834061	-2.100464	-5.368003	-3.812334	 37.924440	-2.927599	-2.450526	 36.184240	 0.754587	-1.378229	 35.397820	-2.634230	 1.496143	 2.572163	-5.131155	 2.005260	-9.246284	 5.162743	 89.782120	 78.203870	 180.000000	-33.867520	 73.916860	 30.719330	 0.094066	-6.404606	 18.428020	-15.206830	-3.309919	 9.516392	 6.437017	 35.671460	-0.771858	 2.830251	 35.756010	-7.813440	-2.350882	 35.473990	 5.254307
 2.755315	-0.243738	-0.605693	 66.936650	-2.282137	-1.073174	 9.265759	 31.202290	 177.753500	-0.909113	-11.560910	 1.962049	 5.392253	 72.624180	 1.142337	-2.103489	 51.454050	-0.639842	 3.548023	-32.031570	-178.838400	 4.128868	-43.069980	 6.446556	 3.500139	 87.286320	 3.667258	 2.386058	 28.067190	-0.006944	-3.050679	 3.187129	 1.468385	 0.982212	-0.905886	 0.036907	 2.333896	-2.550698	-0.861616	-91.776180	 78.527400	-180.000000	 42.056300	 64.167560	-55.835390	-8.672509	-4.815533	-32.207860	 4.242169	-2.111660	-5.365270	-3.812334	 37.924440	-2.927599	-2.450526	 36.184240	 0.754587	-1.378229	 35.397820	-2.634230	 1.619086	 2.961929	-5.060903	 2.117802	-9.225283	 5.257941	 89.782110	 78.203870	 180.000000	-32.310780	 74.142850	 28.708180	 0.136558	-6.277290	 17.828190	-15.368950	-3.319470	 9.509038	 6.437017	 35.671460	-0.771858	 2.830251	 35.756010	-7.813440	-2.350882	 35.473990	 5.254307
 2.809786	-0.277406	-0.602376	 67.953670	-2.574589	-1.125831	 8.015220	 28.796250	 176.873900	-1.077011	-19.936120	 1.820935	 4.018624	 66.971510	 0.399443	-2.133826	 50.143470	-0.590763	 2.343834	-30.348670	-179.235700	 5.021464	-45.789490	 6.777386	 3.558086	 84.660320	 3.117196	 2.394515	 25.817650	-0.054713	-3.274073	 2.865054	 1.370148	 0.952406	-0.820756	-0.087493	 2.382904	-2.371238	-0.945626	-91.776180	 78.527400	-180.000000	 43.822360	 65.804100	-55.833560	-8.301279	-4.801180	-28.852490	 4.953604	-2.111359	-5.364265	-3.812334	 37.924440	-2.927599	-2.450526	 36.184240	 0.754587	-1.378229	 35.397820	-2.634230	 1.686299	 3.056501	-4.900609	 2.193919	-8.969015	 5.140056	 89.782100	 78.203870	-180.000000	-32.062550	 74.146160	 28.482760	 0.182987	-6.143763	 17.425180	-15.339920	-3.328830	 9.503225	 6.437017	 35.671460	-0.771858	 2.830251	 35.756010	-7.813440	-2.350882	 35.473990	 5.254307
 2.870305	-0.319099	-0.594746	 69.007210	-2.790986	-1.219973	 7.644231	 18.142210	 174.754100	-1.336159	-41.500390	 1.294130	 2.264895	 60.112220	 0.524591	-2.262282	 42.856650	-0.355056	 1.397921	-27.918570	-179.861900	 5.741996	-48.065820	 7.046909	 3.497614	 84.209420	 2.835174	 2.405267	 21.113160	-0.150920	-3.343212	 2.685939	 1.593529	 1.035871	-0.829453	-0.157036	 2.571957	-2.069876	-0.980003	-91.776180	 78.527400	 180.000000	 44.413890	 68.116330	-54.560860	-8.139313	-4.712387	-24.104280	 6.148141	-2.142678	-5.353802	-3.812334	 37.924440	-2.927599	-2.450526	 36.184240	 0.754587	-1.378229	 35.397820	-2.634230	 1.627872	 2.921282	-4.724164	 2.156790	-8.447436	 4.697326	 89.782120	 78.203870	 180.000000	-33.139020	 73.611470	 30.225400	-0.226918	-6.023110	 16.970830	-15.399170	-3.334882	 9.498776	 6.437017	 35.671460	-0.771858	 2.830251	 35.756010	-7.813440	-2.350882	 35.473990	 5.254307
 2.900620	-0.339433	-0.591005	 69.619180	-3.075978	 0.005532	 7.732303	 13.883160	 172.435600	-2.147304	-50.314710	 0.031496	 1.120534	 56.129840	 0.725189	-2.335986	 36.197040	-0.178013	 0.787868	-25.323840	 178.487200	 6.378237	-47.710780	 7.032500	 2.979053	 84.680100	 3.467838	 2.407335	 18.866260	-0.195517	-3.620577	 3.123362	 0.224413	 1.076817	-0.960542	-0.414490	 2.852198	-2.428556	-0.979941	-91.776180	 78.527400	-180.000000	 43.747330	 69.327730	-53.081530	-8.439852	-4.567147	-21.963590	 6.587817	-2.174267	-5.343458	-3.812334	 37.924440	-2.927599	-2.450526	 36.184240	 0.754587	-1.378229	 35.397820	-2.634230	 1.534502	 2.890886	-4.654747	 2.064095	-8.281440	 4.352683	 89.782120	 78.203930	 180.000000	-34.006980	 73.131700	 31.622100	-0.545027	-5.980025	 16.823860	-15.406590	-3.335025	 9.498580	 6.437017	 35.671460	-0.771858	 2.830251	 35.756010	-7.813440	-2.350882	 35.473990	 5.254307
 2.948217	-0.371253	-0.585095	 70.846160	-3.167076	 2.026490	 6.603480	 6.276385	 169.760600	-4.522548	-62.731800	-3.931079	-0.752076	 55.752180	 0.763022	-2.361688	 32.832980	-0.097799	 0.280779	-21.219160	 175.821400	 7.245662	-46.229570	 6.941373	 1.915355	 85.994160	 4.903035	 2.407686	 17.487540	-0.222547	-4.068033	 3.381144	-1.879770	 1.056753	-1.195817	-0.859223	 2.930150	-3.133494	-0.919400	-91.776180	 78.527400	-180.000000	 42.217380	 70.934490	-50.661780	-9.490803	-4.120486	-19.010220	 6.638264	-2.232808	-5.325903	-3.812334	 37.924440	-2.927599	-2.450526	 36.184240	 0.754587	-1.378229	 35.397820	-2.634230	 1.336188	 2.938858	-4.523028	 1.904591	-8.496994	 3.811914	 89.782120	 78.203870	 180.000000	-36.229470	 72.064620	 35.518330	-1.052228	-5.953076	 16.761110	-15.383090	-3.336288	 9.497837	 6.437017	 35.671460	-0.771858	 2.830251	 35.756010	-7.813440	-2.350882	 35.473990	 5.254307
